<svg id="svg" version="1.1" xmlns="http://www.w3.org/2000/svg" xmlns:xlink="http://www.w3.org/1999/xlink" width="400" height="400" viewBox="0, 0, 400,400"><g id="svgg"><path id="path0" d="M0.000 200.000 L 0.000 400.000 200.000 400.000 L 400.000 400.000 400.000 200.000 L 400.000 0.000 200.000 0.000 L 0.000 0.000 0.000 200.000 M217.400 20.758 C 228.659 22.058,237.656 23.651,244.400 25.539 C 245.170 25.754,246.880 26.220,248.200 26.574 C 253.971 28.121,261.368 30.560,265.700 32.346 C 266.305 32.596,267.205 32.962,267.700 33.159 C 272.571 35.103,283.791 40.484,287.000 42.415 C 288.100 43.077,289.270 43.738,289.600 43.885 C 289.930 44.031,292.450 45.575,295.200 47.315 C 310.869 57.231,324.616 69.087,336.808 83.200 C 338.233 84.850,339.489 86.290,339.600 86.400 C 339.897 86.697,341.962 89.386,344.668 93.000 C 355.440 107.388,364.948 125.734,370.559 142.956 C 371.284 145.180,372.105 147.810,372.385 148.800 C 372.664 149.790,373.038 151.050,373.215 151.600 C 373.505 152.501,374.648 157.184,375.608 161.400 C 375.950 162.905,376.290 164.711,377.170 169.700 C 379.042 180.308,379.542 187.821,379.858 210.081 C 380.113 228.074,379.706 235.823,378.002 245.400 C 376.779 252.280,376.704 252.638,375.182 259.000 C 374.191 263.145,374.072 263.552,372.219 269.200 C 370.359 274.868,369.384 277.550,369.065 277.868 C 368.919 278.014,368.800 278.369,368.800 278.657 C 368.800 278.944,368.288 280.309,367.662 281.690 C 367.036 283.070,366.181 284.999,365.762 285.976 C 361.118 296.804,352.555 310.560,343.711 321.400 C 339.326 326.775,327.799 338.699,324.680 341.086 C 323.756 341.794,322.460 342.874,321.800 343.486 C 313.562 351.133,293.972 362.744,279.700 368.441 C 279.205 368.638,278.395 368.963,277.900 369.163 C 274.351 370.593,268.741 372.500,265.364 373.423 C 264.064 373.779,262.460 374.221,261.800 374.407 C 255.179 376.270,249.580 377.458,241.200 378.778 C 230.461 380.470,199.204 380.467,181.400 378.773 C 174.801 378.145,171.821 377.690,164.200 376.148 C 162.440 375.792,160.550 375.424,160.000 375.329 C 152.821 374.092,139.008 369.525,126.800 364.352 C 114.101 358.972,93.026 345.757,84.600 337.893 C 83.940 337.276,82.646 336.194,81.724 335.486 C 79.652 333.897,66.704 320.881,63.136 316.800 C 57.322 310.152,47.814 296.889,44.409 290.677 C 43.783 289.535,42.626 287.430,41.838 286.000 C 40.212 283.049,36.909 276.385,35.592 273.400 C 35.107 272.300,34.281 270.450,33.755 269.288 C 33.230 268.127,32.800 266.999,32.800 266.783 C 32.800 266.566,32.641 266.077,32.447 265.695 C 32.252 265.313,31.916 264.550,31.700 264.000 C 31.484 263.450,31.113 262.550,30.875 262.000 C 30.223 260.490,28.123 254.115,27.384 251.400 C 27.025 250.080,26.581 248.460,26.397 247.800 C 25.630 245.041,24.678 241.086,23.627 236.300 C 20.572 222.389,19.047 198.211,20.406 185.268 C 21.115 178.527,21.629 174.270,22.020 171.900 C 22.844 166.915,23.268 164.533,23.607 163.000 C 23.802 162.120,24.172 160.410,24.430 159.200 C 24.688 157.990,25.039 156.550,25.209 156.000 C 25.380 155.450,25.921 153.470,26.412 151.600 C 27.283 148.284,30.096 139.398,30.781 137.800 C 30.969 137.360,31.712 135.470,32.430 133.600 C 46.383 97.283,75.002 64.142,109.800 44.006 C 110.460 43.624,111.900 42.783,113.000 42.136 C 115.086 40.910,120.090 38.435,124.200 36.596 C 125.520 36.006,127.590 35.071,128.800 34.519 C 133.221 32.503,136.651 31.201,142.400 29.357 C 146.770 27.954,147.799 27.642,150.800 26.808 C 151.790 26.532,153.050 26.162,153.600 25.985 C 154.535 25.684,159.777 24.408,163.400 23.599 C 164.280 23.403,166.260 23.046,167.800 22.805 C 169.340 22.565,171.590 22.207,172.800 22.008 C 175.651 21.541,180.867 20.888,185.400 20.430 C 189.698 19.996,212.857 20.234,217.400 20.758 M193.200 31.058 C 184.679 31.279,175.464 32.367,166.200 34.246 C 160.710 35.359,159.865 35.547,157.500 36.182 C 156.235 36.522,154.255 37.052,153.100 37.360 C 150.790 37.976,142.668 40.627,141.400 41.179 C 140.960 41.370,139.340 42.008,137.800 42.597 C 133.400 44.279,119.130 51.123,115.200 53.436 C 112.440 55.061,105.914 59.267,105.600 59.625 C 105.490 59.750,104.500 60.454,103.400 61.189 C 96.022 66.118,88.820 72.119,80.821 80.006 C 71.215 89.476,61.095 102.430,54.443 113.769 C 50.818 119.950,46.966 127.182,46.011 129.600 C 45.707 130.370,45.056 131.900,44.564 133.000 C 40.857 141.291,36.688 154.188,34.836 163.100 C 32.999 171.942,32.778 173.262,31.537 182.800 C 30.903 187.675,30.909 209.932,31.546 215.600 C 32.127 220.767,32.721 225.161,33.194 227.800 C 34.484 234.982,34.494 235.031,36.018 241.400 C 37.027 245.618,37.067 245.753,39.384 252.851 C 42.323 261.850,44.149 266.313,48.447 275.000 C 49.753 277.640,51.294 280.610,51.870 281.600 C 52.447 282.590,53.463 284.390,54.128 285.600 C 56.471 289.865,63.202 299.638,67.157 304.518 C 73.198 311.972,83.185 322.458,88.400 326.824 C 89.830 328.021,91.090 329.100,91.200 329.222 C 91.310 329.344,92.930 330.659,94.800 332.145 C 96.670 333.631,98.487 335.080,98.838 335.366 C 99.189 335.652,100.629 336.663,102.038 337.613 C 103.447 338.563,104.690 339.470,104.800 339.628 C 105.113 340.079,112.821 344.789,118.200 347.817 C 121.171 349.489,129.587 353.694,131.623 354.524 C 132.600 354.922,133.715 355.418,134.100 355.627 C 136.238 356.787,134.262 355.059,131.097 353.000 C 127.626 350.742,120.212 345.354,118.727 344.009 C 118.357 343.674,117.065 342.590,115.857 341.600 C 113.081 339.325,101.697 327.842,98.805 324.400 C 97.604 322.970,96.526 321.710,96.410 321.600 C 94.365 319.656,84.557 305.588,81.770 300.600 C 80.910 299.060,79.895 297.260,79.516 296.600 C 78.621 295.041,73.600 284.871,73.600 284.616 C 73.600 284.508,73.060 283.241,72.400 281.800 C 71.740 280.359,71.200 279.002,71.200 278.785 C 71.200 278.567,71.041 278.077,70.847 277.695 C 70.089 276.206,69.580 274.821,68.017 270.000 C 65.902 263.476,65.828 263.223,64.818 259.000 C 63.296 252.638,63.221 252.280,61.998 245.400 C 60.724 238.236,60.000 229.035,60.000 220.000 C 60.000 210.965,60.724 201.764,61.998 194.600 C 63.221 187.720,63.296 187.362,64.818 181.000 C 65.828 176.777,65.902 176.524,68.017 170.000 C 69.580 165.179,70.089 163.794,70.847 162.305 C 71.041 161.923,71.200 161.434,71.200 161.217 C 71.200 161.001,71.630 159.873,72.155 158.712 C 72.681 157.550,73.507 155.700,73.992 154.600 C 75.320 151.589,78.681 144.836,79.866 142.800 C 80.442 141.810,81.223 140.460,81.601 139.800 C 84.745 134.313,89.315 127.395,92.965 122.600 C 94.304 120.840,95.490 119.310,95.601 119.200 C 95.711 119.090,97.093 117.470,98.671 115.600 C 101.889 111.786,111.634 102.106,115.600 98.783 C 117.030 97.585,118.290 96.512,118.400 96.399 C 127.828 86.683,156.560 71.560,176.000 66.081 C 179.984 64.958,181.404 64.599,185.600 63.648 C 190.982 62.430,198.521 61.334,207.914 60.406 C 222.024 59.013,244.758 60.942,259.200 64.758 C 272.386 68.243,280.494 71.331,292.800 77.555 C 301.786 82.100,318.732 93.178,321.600 96.382 C 321.710 96.504,322.970 97.585,324.400 98.783 C 328.366 102.106,338.111 111.786,341.329 115.600 C 342.907 117.470,344.289 119.090,344.399 119.200 C 345.159 119.957,349.905 126.456,351.994 129.600 C 354.969 134.079,354.745 133.789,355.018 133.516 C 355.283 133.250,353.484 129.179,350.724 123.800 C 348.783 120.016,348.329 119.175,346.400 115.800 C 345.960 115.030,345.229 113.745,344.775 112.944 C 332.528 91.320,308.564 67.706,284.369 53.421 C 280.506 51.140,266.199 44.279,261.800 42.597 C 260.260 42.008,258.640 41.370,258.200 41.179 C 257.195 40.741,249.011 38.014,247.400 37.579 C 243.470 36.518,239.541 35.524,237.800 35.150 C 236.700 34.913,235.080 34.555,234.200 34.355 C 223.792 31.984,207.627 30.684,193.200 31.058 M181.400 102.031 C 175.987 102.668,171.771 103.291,168.800 103.892 C 167.150 104.226,165.350 104.585,164.800 104.689 C 162.437 105.140,150.287 108.920,147.800 109.979 C 147.360 110.166,146.370 110.549,145.600 110.829 C 129.250 116.778,106.880 132.814,95.977 146.400 C 95.006 147.610,94.114 148.690,93.995 148.800 C 93.876 148.910,93.159 149.810,92.400 150.800 C 91.641 151.790,90.908 152.690,90.770 152.800 C 90.250 153.213,82.453 165.098,81.190 167.400 C 77.900 173.398,74.931 179.711,73.009 184.794 C 71.136 189.751,69.070 196.654,68.042 201.400 C 66.603 208.033,66.122 210.976,65.199 218.764 C 64.366 225.790,64.726 238.798,66.025 248.600 C 66.625 253.130,67.633 258.340,68.694 262.400 C 69.786 266.575,69.907 267.007,70.556 269.000 C 70.913 270.100,71.397 271.630,71.630 272.400 C 71.862 273.170,72.203 274.160,72.387 274.600 C 72.571 275.040,73.131 276.480,73.630 277.800 C 75.875 283.734,79.539 291.164,83.587 297.990 C 85.048 300.454,87.216 303.697,87.604 304.000 C 87.745 304.110,88.593 305.280,89.488 306.600 C 94.068 313.350,104.030 323.892,111.986 330.409 C 113.189 331.394,114.539 332.529,114.986 332.930 C 116.067 333.900,125.481 340.249,128.955 342.350 C 131.896 344.130,139.030 347.735,142.000 348.944 C 142.990 349.346,144.340 349.915,145.000 350.207 C 148.310 351.671,153.668 353.611,156.600 354.407 C 163.581 356.302,168.044 357.294,172.698 357.987 C 174.292 358.224,176.812 358.633,178.298 358.895 C 182.116 359.568,205.197 359.561,209.400 358.886 C 211.160 358.603,213.860 358.184,215.400 357.955 C 218.512 357.492,219.762 357.236,225.000 355.982 C 228.923 355.044,229.540 354.869,234.000 353.436 C 236.817 352.531,241.766 350.649,244.700 349.368 C 245.415 349.055,246.675 348.512,247.500 348.159 C 250.951 346.685,255.201 344.499,258.200 342.655 C 259.960 341.573,262.297 340.152,263.393 339.499 C 273.291 333.599,287.662 320.347,296.250 309.200 C 306.187 296.302,315.759 276.969,318.579 264.100 L 318.864 262.800 326.858 262.800 C 336.321 262.800,338.014 262.225,336.747 259.443 C 336.047 257.906,334.451 257.600,327.140 257.600 C 320.015 257.600,320.134 257.635,320.652 255.700 L 320.893 254.800 331.814 254.800 C 343.905 254.800,344.000 254.787,344.000 253.200 C 344.000 251.794,343.487 251.603,339.667 251.588 L 336.600 251.575 330.217 240.560 C 326.707 234.502,323.702 229.463,323.540 229.363 C 323.155 229.125,322.889 227.016,322.385 220.200 C 321.795 212.224,321.178 208.233,319.198 199.600 C 319.022 198.830,318.590 197.156,318.239 195.880 C 317.419 192.904,317.435 192.159,318.345 190.862 C 318.754 190.278,321.394 186.110,324.210 181.600 C 330.226 171.965,329.294 172.814,333.873 172.806 C 337.826 172.800,338.442 172.421,337.798 170.394 C 337.548 169.606,337.267 169.591,325.071 169.694 L 312.600 169.800 312.600 171.200 L 312.600 172.600 318.300 172.711 C 321.435 172.772,324.000 172.985,324.000 173.185 C 324.000 173.529,317.988 183.315,316.281 185.749 L 315.475 186.899 314.501 184.349 C 313.029 180.496,313.089 180.630,309.847 174.000 C 306.893 167.958,306.357 166.973,303.537 162.400 C 293.435 146.015,275.824 128.617,260.631 120.011 C 259.844 119.565,258.525 118.814,257.700 118.343 C 253.695 116.053,245.105 111.983,241.000 110.430 C 239.680 109.931,238.240 109.371,237.800 109.187 C 235.819 108.359,228.100 105.971,225.000 105.229 C 223.900 104.965,222.370 104.590,221.600 104.396 C 212.448 102.084,191.443 100.848,181.400 102.031 M208.498 110.031 C 214.970 110.989,222.818 112.479,225.200 113.203 C 225.750 113.370,227.010 113.735,228.000 114.014 C 234.942 115.969,238.665 117.428,247.400 121.621 C 253.181 124.396,262.830 130.273,266.727 133.393 C 277.044 141.654,283.287 147.896,291.392 158.054 C 293.960 161.273,298.491 168.729,298.183 169.228 C 298.046 169.449,289.845 169.600,277.952 169.600 L 257.952 169.600 258.076 171.100 L 258.200 172.600 261.306 172.717 C 264.809 172.849,264.484 172.565,267.602 178.200 C 268.333 179.520,273.491 188.589,279.065 198.353 C 284.639 208.117,289.200 216.336,289.200 216.617 C 289.200 216.897,286.536 221.598,283.279 227.063 C 280.022 232.529,275.411 240.279,273.032 244.287 L 268.707 251.573 264.654 251.687 L 260.600 251.800 260.600 253.200 L 260.600 254.600 273.156 254.600 C 284.680 254.600,285.749 254.542,286.154 253.900 C 287.239 252.181,286.172 251.809,279.827 251.689 C 276.590 251.628,273.999 251.439,274.070 251.268 C 274.789 249.550,291.896 221.659,292.181 221.743 C 292.390 221.804,292.904 222.472,293.323 223.227 C 294.719 225.746,303.302 240.932,306.270 246.137 C 307.882 248.962,309.200 251.347,309.200 251.437 C 309.200 251.526,307.706 251.600,305.880 251.600 C 302.360 251.600,301.600 251.926,301.600 253.437 C 301.600 254.667,302.211 254.800,307.833 254.800 C 312.796 254.800,312.800 254.801,312.800 255.751 C 312.800 257.674,317.118 257.590,213.076 257.698 C 125.999 257.788,114.362 257.870,113.857 258.400 C 112.721 259.593,112.688 260.724,113.757 261.793 L 114.764 262.800 212.947 262.800 L 311.131 262.800 310.767 263.900 C 310.567 264.505,309.853 266.710,309.180 268.800 C 308.508 270.890,307.811 272.960,307.632 273.400 C 307.453 273.840,307.103 274.695,306.854 275.300 C 306.604 275.905,306.238 276.805,306.039 277.300 C 292.176 311.881,256.948 341.784,221.800 348.806 C 200.367 353.089,186.434 353.085,165.800 348.793 C 164.920 348.610,163.570 348.277,162.800 348.053 C 162.030 347.829,160.725 347.455,159.900 347.223 C 159.075 346.990,157.815 346.635,157.100 346.433 C 152.588 345.160,146.775 342.782,139.600 339.274 C 124.272 331.780,106.904 317.404,96.976 303.993 C 93.448 299.227,92.114 297.319,90.981 295.422 C 90.331 294.335,89.309 292.625,88.709 291.622 C 87.016 288.793,83.707 281.991,81.402 276.600 C 80.490 274.466,78.529 269.069,77.697 266.400 C 76.318 261.979,74.688 254.926,74.045 250.600 C 73.816 249.060,73.402 246.360,73.124 244.600 C 72.438 240.252,72.434 220.529,73.118 216.000 C 73.798 211.503,74.374 208.160,74.807 206.200 C 75.002 205.320,75.372 203.610,75.630 202.400 C 75.888 201.190,76.236 199.750,76.403 199.200 C 76.570 198.650,76.934 197.390,77.211 196.400 C 78.628 191.343,79.781 188.244,82.797 181.400 C 83.936 178.815,86.632 173.340,87.525 171.800 C 89.987 167.551,90.805 166.224,92.948 163.000 C 99.699 152.840,110.574 141.265,120.093 134.103 C 123.683 131.402,130.989 126.400,131.344 126.400 C 131.440 126.400,132.662 125.715,134.059 124.878 C 137.362 122.900,144.574 119.398,148.200 118.013 C 149.431 117.542,150.898 116.951,152.000 116.480 C 152.550 116.245,153.630 115.865,154.400 115.635 C 155.170 115.406,156.880 114.871,158.200 114.448 C 164.987 112.271,178.449 109.806,185.600 109.430 C 190.217 109.188,205.509 109.589,208.498 110.031 M140.000 168.292 C 116.036 169.138,101.200 186.310,101.200 213.200 C 101.200 241.224,115.140 255.844,141.800 255.781 C 163.334 255.730,176.309 246.338,180.734 227.600 C 180.968 226.610,181.393 224.810,181.680 223.600 C 182.493 220.163,182.365 203.533,181.493 199.290 C 177.083 177.832,163.215 167.472,140.000 168.292 M151.200 169.399 C 162.444 171.332,169.544 175.660,174.831 183.800 C 178.128 188.877,179.611 192.889,181.264 201.200 C 181.948 204.640,181.945 219.292,181.260 222.800 C 180.526 226.559,179.499 230.524,178.826 232.200 C 172.326 248.387,161.366 255.249,141.950 255.291 C 116.663 255.346,103.901 243.347,102.047 217.775 C 100.239 192.828,111.429 174.379,131.000 170.038 C 135.600 169.018,136.861 168.884,142.200 168.850 C 145.468 168.829,149.216 169.057,151.200 169.399 M189.467 169.867 C 188.924 170.409,189.197 172.713,189.833 172.957 C 190.181 173.091,191.802 173.200,193.435 173.200 L 196.404 173.200 196.302 212.100 L 196.200 251.000 192.904 251.116 C 189.809 251.225,189.593 251.291,189.368 252.184 C 188.710 254.807,185.948 254.600,221.605 254.600 L 253.800 254.600 254.263 249.800 C 254.517 247.160,254.938 242.300,255.198 239.000 C 255.457 235.700,255.799 231.609,255.956 229.909 C 256.558 223.409,254.025 223.725,250.422 230.600 C 242.502 245.710,236.625 250.541,225.500 251.087 L 220.800 251.318 220.800 212.259 L 220.800 173.200 226.810 173.200 C 233.369 173.200,233.980 172.941,233.327 170.443 L 233.107 169.600 211.420 169.600 C 199.492 169.600,189.613 169.720,189.467 169.867 M232.727 171.300 L 232.853 172.400 227.327 172.405 C 224.287 172.408,221.394 172.520,220.898 172.653 L 219.996 172.894 220.098 212.347 L 220.200 251.800 222.400 251.937 C 234.585 252.695,242.342 246.947,250.923 230.800 C 252.958 226.972,253.265 226.589,254.397 226.473 L 255.638 226.346 255.405 229.473 C 255.277 231.193,255.007 234.580,254.805 237.000 C 254.229 243.907,253.590 251.685,253.491 253.000 L 253.400 254.200 221.600 254.200 L 189.800 254.200 189.675 253.116 L 189.550 252.032 193.075 251.916 L 196.600 251.800 196.702 212.347 L 196.804 172.894 195.902 172.653 C 195.406 172.520,193.785 172.408,192.300 172.405 C 189.740 172.400,189.600 172.352,189.600 171.467 C 189.600 169.965,189.225 169.989,211.370 170.097 L 232.600 170.200 232.727 171.300 M298.734 170.952 C 298.954 172.097,298.103 172.387,294.500 172.394 C 290.617 172.401,290.574 172.478,292.546 175.879 C 293.286 177.155,294.391 179.100,295.002 180.200 C 295.612 181.300,296.561 183.010,297.110 184.000 C 297.659 184.990,298.714 186.845,299.454 188.121 C 300.194 189.398,300.800 190.514,300.800 190.600 C 300.800 190.686,301.406 191.802,302.146 193.079 C 304.100 196.450,305.672 199.271,306.167 200.297 C 306.787 201.581,307.020 201.458,308.669 198.976 C 310.966 195.516,312.444 199.374,310.210 203.000 C 308.918 205.099,308.876 204.877,311.349 209.043 C 314.680 214.652,315.206 217.703,315.192 231.314 C 315.184 239.423,313.894 252.554,312.956 254.071 C 312.844 254.252,310.411 254.400,307.550 254.400 L 302.347 254.400 302.473 253.300 C 302.599 252.208,302.626 252.199,306.200 252.000 C 308.351 251.880,309.771 251.634,309.729 251.387 C 309.690 251.160,308.321 248.640,306.688 245.787 C 303.884 240.892,303.094 239.491,300.545 234.900 C 299.965 233.855,298.820 231.830,298.000 230.400 C 296.316 227.462,294.664 224.512,293.465 222.300 C 292.371 220.283,291.910 220.400,290.338 223.090 C 287.542 227.875,287.085 228.629,286.353 229.662 C 285.939 230.246,285.600 230.848,285.600 231.000 C 285.600 231.152,285.261 231.754,284.847 232.338 C 284.433 232.922,283.734 234.030,283.294 234.800 C 282.854 235.570,280.403 239.657,277.847 243.882 C 275.291 248.106,273.200 251.657,273.200 251.771 C 273.200 251.886,275.945 252.029,279.300 252.090 L 285.400 252.200 285.527 253.306 L 285.654 254.412 273.327 254.306 L 261.000 254.200 261.000 253.200 C 261.000 252.212,261.048 252.198,265.085 252.000 L 269.170 251.800 271.785 247.443 C 273.223 245.047,274.400 243.046,274.400 242.997 C 274.400 242.949,276.920 238.720,280.000 233.600 C 283.080 228.480,285.600 224.213,285.600 224.118 C 285.600 224.022,286.140 223.159,286.800 222.200 C 287.460 221.241,288.000 220.336,288.000 220.190 C 288.000 220.043,288.331 219.446,288.735 218.862 C 289.846 217.257,289.986 216.591,289.430 215.550 C 288.557 213.911,286.904 210.996,278.800 196.800 C 274.467 189.210,270.470 182.190,269.918 181.200 C 269.365 180.210,268.528 178.725,268.057 177.900 C 267.585 177.075,266.821 175.725,266.357 174.900 C 264.970 172.430,264.915 172.400,261.738 172.400 C 258.675 172.400,258.000 172.019,258.546 170.596 C 258.946 169.554,298.532 169.904,298.734 170.952 M337.126 171.086 C 337.280 172.168,336.620 172.359,332.264 172.499 L 329.128 172.600 327.025 176.000 C 325.869 177.870,323.966 180.930,322.797 182.800 C 321.628 184.670,320.012 187.270,319.205 188.577 C 317.436 191.445,317.106 191.603,316.482 189.877 C 315.823 188.053,315.874 187.303,316.745 186.062 C 317.155 185.478,318.206 183.830,319.080 182.400 C 319.955 180.970,321.600 178.302,322.735 176.471 C 323.871 174.639,324.800 172.974,324.800 172.771 C 324.800 172.560,322.289 172.400,318.987 172.400 C 312.918 172.400,312.322 172.222,312.947 170.594 C 313.149 170.068,314.754 170.002,325.090 170.094 L 337.000 170.200 337.126 171.086 M136.792 171.742 C 128.350 174.489,126.389 182.173,126.413 212.421 C 126.439 246.265,129.185 253.138,142.600 252.949 C 151.347 252.826,154.549 248.867,156.471 235.800 C 157.208 230.784,157.216 190.724,156.480 186.400 C 154.963 177.490,152.102 173.049,146.999 171.684 C 144.769 171.088,138.697 171.122,136.792 171.742 M303.232 177.879 C 304.561 180.695,305.818 183.405,306.024 183.900 C 306.536 185.126,307.240 186.834,307.631 187.800 C 307.809 188.240,308.478 190.158,309.117 192.063 L 310.279 195.526 308.703 198.006 C 307.835 199.370,306.985 200.332,306.813 200.143 C 306.641 199.954,303.304 194.040,299.398 187.000 C 295.491 179.960,292.140 174.003,291.951 173.763 C 291.341 172.989,292.064 172.800,295.640 172.800 C 298.843 172.800,299.169 172.728,299.411 171.965 L 299.676 171.130 300.246 171.944 C 300.559 172.392,301.903 175.062,303.232 177.879 M148.213 172.765 C 155.367 175.929,156.589 181.613,156.565 211.600 C 156.538 246.452,154.409 252.400,141.962 252.400 C 129.808 252.400,126.802 244.510,126.801 212.600 C 126.800 182.843,129.007 174.552,137.580 172.119 C 140.286 171.351,145.771 171.684,148.213 172.765 M312.975 206.933 C 313.910 211.300,313.669 211.781,311.953 208.970 C 309.480 204.919,309.529 205.149,310.708 203.173 L 311.766 201.400 312.035 202.600 C 312.184 203.260,312.607 205.210,312.975 206.933 M324.638 231.903 C 325.098 232.726,326.786 235.650,328.387 238.400 C 329.989 241.150,331.611 243.940,331.993 244.600 C 332.375 245.260,333.166 246.610,333.753 247.600 C 334.339 248.590,335.114 249.978,335.476 250.685 C 336.131 251.965,336.149 251.971,339.567 252.085 C 342.987 252.200,343.000 252.204,343.127 253.306 L 343.254 254.413 332.127 254.306 C 321.265 254.203,321.002 254.181,321.098 253.400 C 321.152 252.960,321.383 251.340,321.611 249.800 C 322.125 246.335,322.694 240.363,323.051 234.700 C 323.352 229.922,323.441 229.765,324.638 231.903 M336.170 259.706 C 337.067 262.257,346.487 262.061,224.984 262.016 C 145.841 261.988,114.504 261.853,114.127 261.539 C 113.468 260.993,113.443 259.517,114.081 258.879 C 114.453 258.507,139.472 258.421,225.171 258.499 L 335.781 258.600 336.170 259.706 " stroke="none" fill="#f3e4cc" fill-rule="evenodd"></path><path id="path1" d="M134.800 169.240 C 133.810 169.435,132.100 169.794,131.000 170.038 C 111.429 174.379,100.239 192.828,102.047 217.775 C 103.901 243.347,116.663 255.346,141.950 255.291 C 161.366 255.249,172.326 248.387,178.826 232.200 C 179.499 230.524,180.526 226.559,181.260 222.800 C 181.945 219.292,181.948 204.640,181.264 201.200 C 178.224 185.916,172.789 177.896,161.800 172.479 C 155.568 169.408,142.134 167.796,134.800 169.240 M189.870 170.263 C 188.625 171.508,189.637 172.400,192.300 172.405 C 193.785 172.408,195.406 172.520,195.902 172.653 L 196.804 172.894 196.702 212.347 L 196.600 251.800 193.075 251.916 L 189.550 252.032 189.675 253.116 L 189.800 254.200 221.600 254.200 L 253.400 254.200 253.491 253.000 C 253.590 251.685,254.229 243.907,254.805 237.000 C 255.007 234.580,255.277 231.193,255.405 229.473 L 255.638 226.346 254.397 226.473 C 253.265 226.589,252.958 226.972,250.923 230.800 C 242.342 246.947,234.585 252.695,222.400 251.937 L 220.200 251.800 220.098 212.347 L 219.996 172.894 220.898 172.653 C 221.394 172.520,224.287 172.408,227.327 172.405 L 232.853 172.400 232.727 171.300 L 232.600 170.200 211.370 170.097 C 199.694 170.040,190.019 170.115,189.870 170.263 M258.546 170.596 C 258.000 172.019,258.675 172.400,261.738 172.400 C 264.915 172.400,264.970 172.430,266.357 174.900 C 266.821 175.725,267.585 177.075,268.057 177.900 C 268.528 178.725,269.365 180.210,269.918 181.200 C 270.470 182.190,274.467 189.210,278.800 196.800 C 286.904 210.996,288.557 213.911,289.430 215.550 C 289.986 216.591,289.846 217.257,288.735 218.862 C 288.331 219.446,288.000 220.043,288.000 220.190 C 288.000 220.336,287.460 221.241,286.800 222.200 C 286.140 223.159,285.600 224.022,285.600 224.118 C 285.600 224.213,283.080 228.480,280.000 233.600 C 276.920 238.720,274.400 242.949,274.400 242.997 C 274.400 243.046,273.223 245.047,271.785 247.443 L 269.170 251.800 265.085 252.000 C 261.048 252.198,261.000 252.212,261.000 253.200 L 261.000 254.200 273.327 254.306 L 285.654 254.412 285.527 253.306 L 285.400 252.200 279.300 252.090 C 275.945 252.029,273.200 251.886,273.200 251.771 C 273.200 251.657,275.291 248.106,277.847 243.882 C 280.403 239.657,282.854 235.570,283.294 234.800 C 283.734 234.030,284.433 232.922,284.847 232.338 C 285.261 231.754,285.600 231.152,285.600 231.000 C 285.600 230.848,285.939 230.246,286.353 229.662 C 287.085 228.629,287.542 227.875,290.338 223.090 C 291.910 220.400,292.371 220.283,293.465 222.300 C 294.664 224.512,296.316 227.462,298.000 230.400 C 298.820 231.830,299.965 233.855,300.545 234.900 C 303.094 239.491,303.884 240.892,306.688 245.787 C 308.321 248.640,309.690 251.160,309.729 251.387 C 309.771 251.634,308.351 251.880,306.200 252.000 C 302.626 252.199,302.599 252.208,302.473 253.300 L 302.347 254.400 307.550 254.400 C 310.411 254.400,312.844 254.252,312.956 254.071 C 313.894 252.554,315.184 239.423,315.192 231.314 C 315.206 217.703,314.680 214.652,311.349 209.043 C 308.876 204.877,308.918 205.099,310.210 203.000 C 312.444 199.374,310.966 195.516,308.669 198.976 C 307.020 201.458,306.787 201.581,306.167 200.297 C 305.672 199.271,304.100 196.450,302.146 193.079 C 301.406 191.802,300.800 190.686,300.800 190.600 C 300.800 190.514,300.194 189.398,299.454 188.121 C 298.714 186.845,297.659 184.990,297.110 184.000 C 296.561 183.010,295.612 181.300,295.002 180.200 C 294.391 179.100,293.286 177.155,292.546 175.879 C 290.574 172.478,290.617 172.401,294.500 172.394 C 298.103 172.387,298.954 172.097,298.734 170.952 C 298.532 169.904,258.946 169.554,258.546 170.596 M312.947 170.594 C 312.322 172.222,312.918 172.400,318.987 172.400 C 322.289 172.400,324.800 172.560,324.800 172.771 C 324.800 172.974,323.871 174.639,322.735 176.471 C 321.600 178.302,319.955 180.970,319.080 182.400 C 318.206 183.830,317.155 185.478,316.745 186.062 C 315.874 187.303,315.823 188.053,316.482 189.877 C 317.106 191.603,317.436 191.445,319.205 188.577 C 320.012 187.270,321.628 184.670,322.797 182.800 C 323.966 180.930,325.869 177.870,327.025 176.000 L 329.128 172.600 332.264 172.499 C 336.620 172.359,337.280 172.168,337.126 171.086 L 337.000 170.200 325.090 170.094 C 314.754 170.002,313.149 170.068,312.947 170.594 M146.999 171.684 C 152.102 173.049,154.963 177.490,156.480 186.400 C 157.216 190.724,157.208 230.784,156.471 235.800 C 154.549 248.867,151.347 252.826,142.600 252.949 C 134.153 253.068,129.862 249.390,127.959 240.400 C 125.941 230.866,125.738 194.434,127.650 184.800 C 129.819 173.869,136.991 169.008,146.999 171.684 M323.051 234.700 C 322.694 240.363,322.125 246.335,321.611 249.800 C 321.383 251.340,321.152 252.960,321.098 253.400 C 321.002 254.181,321.265 254.203,332.127 254.306 L 343.254 254.413 343.127 253.306 C 343.000 252.204,342.987 252.200,339.567 252.085 C 336.149 251.971,336.131 251.965,335.476 250.685 C 335.114 249.978,334.339 248.590,333.753 247.600 C 333.166 246.610,332.375 245.260,331.993 244.600 C 331.611 243.940,329.989 241.150,328.387 238.400 C 326.786 235.650,325.098 232.726,324.638 231.903 C 323.441 229.765,323.352 229.922,323.051 234.700 M114.081 258.879 C 113.443 259.517,113.468 260.993,114.127 261.539 C 114.504 261.853,145.841 261.988,224.984 262.016 C 346.487 262.061,337.067 262.257,336.170 259.706 L 335.781 258.600 225.171 258.499 C 139.472 258.421,114.453 258.507,114.081 258.879 " stroke="none" fill="#757575" fill-rule="evenodd"></path><path id="path2" d="M185.400 20.430 C 180.867 20.888,175.651 21.541,172.800 22.008 C 171.590 22.207,169.340 22.565,167.800 22.805 C 166.260 23.046,164.280 23.403,163.400 23.599 C 159.777 24.408,154.535 25.684,153.600 25.985 C 153.050 26.162,151.790 26.532,150.800 26.808 C 147.799 27.642,146.770 27.954,142.400 29.357 C 136.651 31.201,133.221 32.503,128.800 34.519 C 127.590 35.071,125.520 36.006,124.200 36.596 C 120.090 38.435,115.086 40.910,113.000 42.136 C 111.900 42.783,110.460 43.624,109.800 44.006 C 75.002 64.142,46.383 97.283,32.430 133.600 C 31.712 135.470,30.969 137.360,30.781 137.800 C 30.096 139.398,27.283 148.284,26.412 151.600 C 25.921 153.470,25.380 155.450,25.209 156.000 C 25.039 156.550,24.688 157.990,24.430 159.200 C 24.172 160.410,23.802 162.120,23.607 163.000 C 23.268 164.533,22.844 166.915,22.020 171.900 C 21.629 174.270,21.115 178.527,20.406 185.268 C 19.047 198.211,20.572 222.389,23.627 236.300 C 24.678 241.086,25.630 245.041,26.397 247.800 C 26.581 248.460,27.025 250.080,27.384 251.400 C 28.123 254.115,30.223 260.490,30.875 262.000 C 31.113 262.550,31.484 263.450,31.700 264.000 C 31.916 264.550,32.252 265.313,32.447 265.695 C 32.641 266.077,32.800 266.566,32.800 266.783 C 32.800 266.999,33.230 268.127,33.755 269.288 C 34.281 270.450,35.107 272.300,35.592 273.400 C 36.909 276.385,40.212 283.049,41.838 286.000 C 42.626 287.430,43.783 289.535,44.409 290.677 C 47.814 296.889,57.322 310.152,63.136 316.800 C 66.704 320.881,79.652 333.897,81.724 335.486 C 82.646 336.194,83.940 337.276,84.600 337.893 C 93.026 345.757,114.101 358.972,126.800 364.352 C 139.008 369.525,152.821 374.092,160.000 375.329 C 160.550 375.424,162.440 375.792,164.200 376.148 C 171.821 377.690,174.801 378.145,181.400 378.773 C 199.204 380.467,230.461 380.470,241.200 378.778 C 249.580 377.458,255.179 376.270,261.800 374.407 C 262.460 374.221,264.064 373.779,265.364 373.423 C 268.741 372.500,274.351 370.593,277.900 369.163 C 278.395 368.963,279.205 368.638,279.700 368.441 C 286.853 365.586,294.655 361.720,301.800 357.491 C 308.432 353.565,318.649 346.410,321.800 343.486 C 322.460 342.874,323.756 341.794,324.680 341.086 C 327.799 338.699,339.326 326.775,343.711 321.400 C 352.555 310.560,361.118 296.804,365.762 285.976 C 366.181 284.999,367.036 283.070,367.662 281.690 C 368.288 280.309,368.800 278.944,368.800 278.657 C 368.800 278.369,368.919 278.014,369.065 277.868 C 369.384 277.550,370.359 274.868,372.219 269.200 C 374.072 263.552,374.191 263.145,375.182 259.000 C 376.704 252.638,376.779 252.280,378.002 245.400 C 379.706 235.823,380.113 228.074,379.858 210.081 C 379.542 187.821,379.042 180.308,377.170 169.700 C 376.290 164.711,375.950 162.905,375.608 161.400 C 374.648 157.184,373.505 152.501,373.215 151.600 C 373.038 151.050,372.664 149.790,372.385 148.800 C 367.087 130.031,356.628 108.976,344.668 93.000 C 341.962 89.386,339.897 86.697,339.600 86.400 C 339.489 86.290,338.233 84.850,336.808 83.200 C 324.616 69.087,310.869 57.231,295.200 47.315 C 292.450 45.575,289.930 44.031,289.600 43.885 C 289.270 43.738,288.100 43.077,287.000 42.415 C 283.791 40.484,272.571 35.103,267.700 33.159 C 267.205 32.962,266.305 32.596,265.700 32.346 C 261.368 30.560,253.971 28.121,248.200 26.574 C 246.880 26.220,245.170 25.754,244.400 25.539 C 237.656 23.651,228.659 22.058,217.400 20.758 C 212.857 20.234,189.698 19.996,185.400 20.430 M215.600 31.642 C 221.527 32.176,230.175 33.438,234.200 34.355 C 235.080 34.555,236.700 34.913,237.800 35.150 C 239.541 35.524,243.470 36.518,247.400 37.579 C 249.011 38.014,257.195 40.741,258.200 41.179 C 258.640 41.370,260.260 42.008,261.800 42.597 C 266.199 44.279,280.506 51.140,284.369 53.421 C 308.564 67.706,332.528 91.320,344.775 112.944 C 345.229 113.745,345.960 115.030,346.400 115.800 C 348.329 119.175,348.783 120.016,350.724 123.800 C 353.484 129.179,355.283 133.250,355.018 133.516 C 354.745 133.789,354.969 134.079,351.994 129.600 C 349.905 126.456,345.159 119.957,344.399 119.200 C 344.289 119.090,342.907 117.470,341.329 115.600 C 338.111 111.786,328.366 102.106,324.400 98.783 C 322.970 97.585,321.710 96.504,321.600 96.382 C 318.732 93.178,301.786 82.100,292.800 77.555 C 280.494 71.331,272.386 68.243,259.200 64.758 C 254.137 63.420,247.732 62.275,239.400 61.219 C 226.099 59.532,213.901 59.532,200.600 61.219 C 191.453 62.379,189.546 62.713,182.000 64.477 C 164.721 68.516,146.521 76.650,130.079 87.681 C 126.669 89.969,119.306 95.465,118.400 96.399 C 118.290 96.512,117.030 97.585,115.600 98.783 C 111.634 102.106,101.889 111.786,98.671 115.600 C 97.093 117.470,95.711 119.090,95.601 119.200 C 95.490 119.310,94.304 120.840,92.965 122.600 C 89.315 127.395,84.745 134.313,81.601 139.800 C 81.223 140.460,80.442 141.810,79.866 142.800 C 78.681 144.836,75.320 151.589,73.992 154.600 C 73.507 155.700,72.681 157.550,72.155 158.712 C 71.630 159.873,71.200 161.001,71.200 161.217 C 71.200 161.434,71.041 161.923,70.847 162.305 C 70.089 163.794,69.580 165.179,68.017 170.000 C 65.902 176.524,65.828 176.777,64.818 181.000 C 63.296 187.362,63.221 187.720,61.998 194.600 C 60.724 201.764,60.000 210.965,60.000 220.000 C 60.000 229.035,60.724 238.236,61.998 245.400 C 63.221 252.280,63.296 252.638,64.818 259.000 C 65.828 263.223,65.902 263.476,68.017 270.000 C 69.580 274.821,70.089 276.206,70.847 277.695 C 71.041 278.077,71.200 278.567,71.200 278.785 C 71.200 279.002,71.740 280.359,72.400 281.800 C 73.060 283.241,73.600 284.508,73.600 284.616 C 73.600 284.871,78.621 295.041,79.516 296.600 C 79.895 297.260,80.910 299.060,81.770 300.600 C 84.557 305.588,94.365 319.656,96.410 321.600 C 96.526 321.710,97.604 322.970,98.805 324.400 C 101.697 327.842,113.081 339.325,115.857 341.600 C 117.065 342.590,118.357 343.674,118.727 344.009 C 120.212 345.354,127.626 350.742,131.097 353.000 C 134.262 355.059,136.238 356.787,134.100 355.627 C 133.715 355.418,132.600 354.922,131.623 354.524 C 129.587 353.694,121.171 349.489,118.200 347.817 C 112.821 344.789,105.113 340.079,104.800 339.628 C 104.690 339.470,103.447 338.563,102.038 337.613 C 100.629 336.663,99.189 335.652,98.838 335.366 C 98.487 335.080,96.670 333.631,94.800 332.145 C 92.930 330.659,91.310 329.344,91.200 329.222 C 91.090 329.100,89.830 328.021,88.400 326.824 C 83.185 322.458,73.198 311.972,67.157 304.518 C 63.202 299.638,56.471 289.865,54.128 285.600 C 53.463 284.390,52.447 282.590,51.870 281.600 C 51.294 280.610,49.753 277.640,48.447 275.000 C 44.149 266.313,42.323 261.850,39.384 252.851 C 37.067 245.753,37.027 245.618,36.018 241.400 C 34.494 235.031,34.484 234.982,33.194 227.800 C 32.721 225.161,32.127 220.767,31.546 215.600 C 30.909 209.932,30.903 187.675,31.537 182.800 C 32.778 173.262,32.999 171.942,34.836 163.100 C 36.688 154.188,40.857 141.291,44.564 133.000 C 45.056 131.900,45.707 130.370,46.011 129.600 C 46.966 127.182,50.818 119.950,54.443 113.769 C 61.095 102.430,71.215 89.476,80.821 80.006 C 88.820 72.119,96.022 66.118,103.400 61.189 C 104.500 60.454,105.490 59.750,105.600 59.625 C 105.914 59.267,112.440 55.061,115.200 53.436 C 119.130 51.123,133.400 44.279,137.800 42.597 C 139.340 42.008,140.960 41.370,141.400 41.179 C 142.668 40.627,150.790 37.976,153.100 37.360 C 154.255 37.052,156.235 36.522,157.500 36.182 C 159.865 35.547,160.710 35.359,166.200 34.246 C 181.769 31.088,199.251 30.166,215.600 31.642 M207.200 102.194 C 213.942 102.934,218.678 103.658,221.600 104.396 C 222.370 104.590,223.900 104.965,225.000 105.229 C 228.100 105.971,235.819 108.359,237.800 109.187 C 238.240 109.371,239.680 109.931,241.000 110.430 C 245.105 111.983,253.695 116.053,257.700 118.343 C 258.525 118.814,259.844 119.565,260.631 120.011 C 275.824 128.617,293.435 146.015,303.537 162.400 C 306.357 166.973,306.893 167.958,309.847 174.000 C 313.089 180.630,313.029 180.496,314.501 184.349 L 315.475 186.899 316.281 185.749 C 317.988 183.315,324.000 173.529,324.000 173.185 C 324.000 172.985,321.435 172.772,318.300 172.711 L 312.600 172.600 312.600 171.200 L 312.600 169.800 325.071 169.694 C 337.267 169.591,337.548 169.606,337.798 170.394 C 338.442 172.421,337.826 172.800,333.873 172.806 C 329.294 172.814,330.226 171.965,324.210 181.600 C 321.394 186.110,318.754 190.278,318.345 190.862 C 317.435 192.159,317.419 192.904,318.239 195.880 C 318.590 197.156,319.022 198.830,319.198 199.600 C 321.178 208.233,321.795 212.224,322.385 220.200 C 322.889 227.016,323.155 229.125,323.540 229.363 C 323.702 229.463,326.707 234.502,330.217 240.560 L 336.600 251.575 339.667 251.588 C 343.487 251.603,344.000 251.794,344.000 253.200 C 344.000 254.787,343.905 254.800,331.814 254.800 L 320.893 254.800 320.652 255.700 C 320.134 257.635,320.015 257.600,327.140 257.600 C 334.451 257.600,336.047 257.906,336.747 259.443 C 338.014 262.225,336.321 262.800,326.858 262.800 L 318.864 262.800 318.579 264.100 C 315.759 276.969,306.187 296.302,296.250 309.200 C 287.662 320.347,273.291 333.599,263.393 339.499 C 262.297 340.152,259.960 341.573,258.200 342.655 C 255.201 344.499,250.951 346.685,247.500 348.159 C 246.675 348.512,245.415 349.055,244.700 349.368 C 241.766 350.649,236.817 352.531,234.000 353.436 C 229.540 354.869,228.923 355.044,225.000 355.982 C 219.762 357.236,218.512 357.492,215.400 357.955 C 213.860 358.184,211.160 358.603,209.400 358.886 C 205.197 359.561,182.116 359.568,178.298 358.895 C 176.812 358.633,174.292 358.224,172.698 357.987 C 168.044 357.294,163.581 356.302,156.600 354.407 C 153.668 353.611,148.310 351.671,145.000 350.207 C 144.340 349.915,142.990 349.346,142.000 348.944 C 139.030 347.735,131.896 344.130,128.955 342.350 C 125.481 340.249,116.067 333.900,114.986 332.930 C 114.539 332.529,113.189 331.394,111.986 330.409 C 104.030 323.892,94.068 313.350,89.488 306.600 C 88.593 305.280,87.745 304.110,87.604 304.000 C 87.463 303.890,86.793 302.985,86.116 301.990 C 81.904 295.796,76.417 285.166,73.630 277.800 C 73.131 276.480,72.571 275.040,72.387 274.600 C 72.203 274.160,71.862 273.170,71.630 272.400 C 71.397 271.630,70.913 270.100,70.556 269.000 C 69.907 267.007,69.786 266.575,68.694 262.400 C 66.104 252.491,64.800 241.604,64.800 229.895 C 64.800 219.656,65.591 212.702,68.042 201.400 C 69.070 196.654,71.136 189.751,73.009 184.794 C 74.931 179.711,77.900 173.398,81.190 167.400 C 82.453 165.098,90.250 153.213,90.770 152.800 C 90.908 152.690,91.641 151.790,92.400 150.800 C 93.159 149.810,93.876 148.910,93.995 148.800 C 94.114 148.690,95.006 147.610,95.977 146.400 C 106.880 132.814,129.250 116.778,145.600 110.829 C 146.370 110.549,147.360 110.166,147.800 109.979 C 150.287 108.920,162.437 105.140,164.800 104.689 C 165.350 104.585,167.150 104.226,168.800 103.892 C 171.771 103.291,175.987 102.668,181.400 102.031 C 186.244 101.460,201.387 101.556,207.200 102.194 M185.600 109.430 C 178.449 109.806,164.987 112.271,158.200 114.448 C 156.880 114.871,155.170 115.406,154.400 115.635 C 153.630 115.865,152.550 116.245,152.000 116.480 C 150.898 116.951,149.431 117.542,148.200 118.013 C 144.574 119.398,137.362 122.900,134.059 124.878 C 132.662 125.715,131.440 126.400,131.344 126.400 C 130.989 126.400,123.683 131.402,120.093 134.103 C 110.574 141.265,99.699 152.840,92.948 163.000 C 90.805 166.224,89.987 167.551,87.525 171.800 C 86.632 173.340,83.936 178.815,82.797 181.400 C 79.781 188.244,78.628 191.343,77.211 196.400 C 76.934 197.390,76.570 198.650,76.403 199.200 C 76.236 199.750,75.888 201.190,75.630 202.400 C 75.372 203.610,75.002 205.320,74.807 206.200 C 74.374 208.160,73.798 211.503,73.118 216.000 C 72.434 220.529,72.438 240.252,73.124 244.600 C 73.402 246.360,73.816 249.060,74.045 250.600 C 75.237 258.617,78.218 269.153,81.402 276.600 C 83.707 281.991,87.016 288.793,88.709 291.622 C 89.309 292.625,90.331 294.335,90.981 295.422 C 92.114 297.319,93.448 299.227,96.976 303.993 C 110.757 322.608,136.124 340.515,157.100 346.433 C 157.815 346.635,159.075 346.990,159.900 347.223 C 160.725 347.455,162.030 347.829,162.800 348.053 C 163.570 348.277,164.920 348.610,165.800 348.793 C 186.434 353.085,200.367 353.089,221.800 348.806 C 256.948 341.784,292.176 311.881,306.039 277.300 C 306.238 276.805,306.604 275.905,306.854 275.300 C 307.103 274.695,307.453 273.840,307.632 273.400 C 307.811 272.960,308.508 270.890,309.180 268.800 C 309.853 266.710,310.567 264.505,310.767 263.900 L 311.131 262.800 212.947 262.800 L 114.764 262.800 113.757 261.793 C 112.688 260.724,112.721 259.593,113.857 258.400 C 114.362 257.870,125.999 257.788,213.076 257.698 C 317.118 257.590,312.800 257.674,312.800 255.751 C 312.800 254.801,312.796 254.800,307.833 254.800 C 302.211 254.800,301.600 254.667,301.600 253.437 C 301.600 251.926,302.360 251.600,305.880 251.600 C 307.706 251.600,309.200 251.526,309.200 251.437 C 309.200 251.347,307.882 248.962,306.270 246.137 C 303.302 240.932,294.719 225.746,293.323 223.227 C 292.904 222.472,292.390 221.804,292.181 221.743 C 291.896 221.659,274.789 249.550,274.070 251.268 C 273.999 251.439,276.590 251.628,279.827 251.689 C 286.172 251.809,287.239 252.181,286.154 253.900 C 285.749 254.542,284.680 254.600,273.156 254.600 L 260.600 254.600 260.600 253.200 L 260.600 251.800 264.654 251.687 L 268.707 251.573 273.032 244.287 C 275.411 240.279,280.022 232.529,283.279 227.063 C 286.536 221.598,289.200 216.897,289.200 216.617 C 289.200 216.336,284.639 208.117,279.065 198.353 C 273.491 188.589,268.333 179.520,267.602 178.200 C 264.484 172.565,264.809 172.849,261.306 172.717 L 258.200 172.600 258.076 171.100 L 257.952 169.600 277.952 169.600 C 289.845 169.600,298.046 169.449,298.183 169.228 C 298.491 168.729,293.960 161.273,291.392 158.054 C 283.287 147.896,277.044 141.654,266.727 133.393 C 262.830 130.273,253.181 124.396,247.400 121.621 C 238.665 117.428,234.942 115.969,228.000 114.014 C 227.010 113.735,225.750 113.370,225.200 113.203 C 222.818 112.479,214.970 110.989,208.498 110.031 C 205.509 109.589,190.217 109.188,185.600 109.430 M154.194 169.370 C 169.223 172.930,178.068 182.623,181.493 199.290 C 182.365 203.533,182.493 220.163,181.680 223.600 C 181.393 224.810,180.968 226.610,180.734 227.600 C 176.309 246.338,163.334 255.730,141.800 255.781 C 117.580 255.839,104.878 244.939,101.779 221.437 C 97.047 185.563,121.211 161.559,154.194 169.370 M233.327 170.443 C 233.980 172.941,233.369 173.200,226.810 173.200 L 220.800 173.200 220.800 212.259 L 220.800 251.318 225.500 251.087 C 236.625 250.541,242.502 245.710,250.422 230.600 C 254.025 223.725,256.558 223.409,255.956 229.909 C 255.799 231.609,255.457 235.700,255.198 239.000 C 254.938 242.300,254.517 247.160,254.263 249.800 L 253.800 254.600 221.605 254.600 C 185.948 254.600,188.710 254.807,189.368 252.184 C 189.593 251.291,189.809 251.225,192.904 251.116 L 196.200 251.000 196.302 212.100 L 196.404 173.200 193.435 173.200 C 191.802 173.200,190.181 173.091,189.833 172.957 C 189.197 172.713,188.924 170.409,189.467 169.867 C 189.613 169.720,199.492 169.600,211.420 169.600 L 233.107 169.600 233.327 170.443 M299.411 171.965 C 299.169 172.728,298.843 172.800,295.640 172.800 C 292.064 172.800,291.341 172.989,291.951 173.763 C 292.140 174.003,295.491 179.960,299.398 187.000 C 303.304 194.040,306.641 199.954,306.813 200.143 C 306.985 200.332,307.835 199.370,308.703 198.006 L 310.279 195.526 309.117 192.063 C 308.478 190.158,307.809 188.240,307.631 187.800 C 307.240 186.834,306.536 185.126,306.024 183.900 C 305.035 181.531,300.750 172.663,300.246 171.944 L 299.676 171.130 299.411 171.965 M137.580 172.119 C 129.007 174.552,126.800 182.843,126.801 212.600 C 126.802 244.510,129.808 252.400,141.962 252.400 C 154.409 252.400,156.538 246.452,156.565 211.600 C 156.586 185.018,155.669 178.754,151.133 174.520 C 148.554 172.111,141.815 170.918,137.580 172.119 M310.708 203.173 C 309.529 205.149,309.480 204.919,311.953 208.970 C 313.998 212.319,314.010 211.394,312.035 202.600 L 311.766 201.400 310.708 203.173 " stroke="none" fill="#fbfbfb" fill-rule="evenodd"></path></g></svg>